<svg width="80" height="80" viewBox="0 0 80 80" fill="none" xmlns="http://www.w3.org/2000/svg">
<path d="M11.3156 67.6111V46.2689H21.5822C22.723 46.2689 23.76 46.5385 24.6934 47.0778C25.6474 47.617 26.4045 48.3533 26.9645 49.2866C27.5245 50.1992 27.8045 51.2259 27.8045 52.3666V52.8022C27.8045 53.9429 27.5141 55.0007 26.9334 55.9755C26.3526 56.9503 25.5852 57.7281 24.6311 58.3089C23.6771 58.8896 22.6193 59.18 21.4578 59.18H15.8578V67.6111H11.3156ZM15.8578 55.7578H20.4C20.96 55.7578 21.4474 55.6333 21.8622 55.3844C22.2978 55.1148 22.64 54.7518 22.8889 54.2955C23.1378 53.8392 23.2622 53.3207 23.2622 52.74C23.2622 51.9103 22.9926 51.2052 22.4534 50.6244C21.9141 50.0229 21.1985 49.7222 20.3067 49.7222H15.8578V55.7578ZM30.9423 67.6111V46.2689H34.7379L42.3601 57.5933L43.4801 59.5533L43.6045 59.5222V46.2689H47.7112V67.6111H43.8223L35.9823 55.8822L35.2045 54.4511L35.049 54.4822V67.6111H30.9423ZM60.1979 67.9222C58.9742 67.9222 57.8439 67.7148 56.8068 67.3C55.7698 66.8852 54.8676 66.2733 54.1002 65.4644C53.3327 64.6348 52.7313 63.6081 52.2957 62.3844C51.8809 61.1607 51.6735 59.7192 51.6735 58.06V55.7889C51.6735 54.1503 51.8913 52.7192 52.3268 51.4955C52.7831 50.2511 53.4261 49.2244 54.2557 48.4155C55.0853 47.5859 56.0498 46.9741 57.149 46.58C58.269 46.1652 59.4824 45.9578 60.789 45.9578H61.349C62.4898 45.9578 63.5579 46.1237 64.5535 46.4555C65.549 46.7874 66.4305 47.2852 67.1979 47.9489C67.9653 48.5918 68.5668 49.4111 69.0024 50.4066C69.4379 51.3815 69.6557 52.5118 69.6557 53.7978H65.4557C65.4557 52.7192 65.2483 51.8585 64.8335 51.2155C64.4394 50.5726 63.9002 50.1163 63.2157 49.8466C62.552 49.5563 61.795 49.4111 60.9446 49.4111C60.3016 49.4111 59.7002 49.5148 59.1402 49.7222C58.6009 49.9089 58.1239 50.22 57.709 50.6555C57.315 51.0703 57.0039 51.6303 56.7757 52.3355C56.5683 53.02 56.4646 53.86 56.4646 54.8555V59.0244C56.4646 60.02 56.5683 60.8703 56.7757 61.5755C57.0039 62.26 57.315 62.82 57.709 63.2555C58.1239 63.6703 58.6009 63.9815 59.1402 64.1889C59.7002 64.3755 60.3016 64.4689 60.9446 64.4689C61.5876 64.4689 62.1787 64.3963 62.7179 64.2511C63.2779 64.1059 63.7653 63.8674 64.1802 63.5355C64.595 63.2037 64.9164 62.7578 65.1446 62.1978C65.3727 61.6378 65.4868 60.9326 65.4868 60.0822V59.18H60.3535V56.1H69.6557V63.4422C69.6557 64.4585 69.6764 65.2985 69.7179 65.9622C69.7802 66.6052 69.8216 67.1548 69.8424 67.6111H67.3535L66.6379 65.0911C65.995 65.9829 65.1031 66.6778 63.9624 67.1755C62.8216 67.6733 61.6498 67.9222 60.4468 67.9222H60.1979Z" fill="white" fill-opacity="0.8"/>
<path d="M15.0001 37.5C15.6631 37.5 16.299 37.2366 16.7678 36.7677C17.2367 36.2989 17.5001 35.663 17.5001 35V12.5H45.0001V27.5C45.0001 28.163 45.2635 28.7989 45.7323 29.2678C46.2011 29.7366 46.837 30 47.5001 30H62.5001V35C62.5001 35.663 62.7635 36.2989 63.2323 36.7677C63.7011 37.2366 64.337 37.5 65.0001 37.5C65.6631 37.5 66.299 37.2366 66.7678 36.7677C67.2367 36.2989 67.5001 35.663 67.5001 35V27.5C67.5003 27.1716 67.4359 26.8464 67.3104 26.5429C67.1849 26.2394 67.0009 25.9636 66.7688 25.7312L49.2688 8.23125C49.0365 7.99916 48.7607 7.81513 48.4572 7.68966C48.1537 7.56419 47.8285 7.49974 47.5001 7.5H17.5001C16.174 7.5 14.9022 8.02678 13.9645 8.96447C13.0268 9.90215 12.5001 11.1739 12.5001 12.5V35C12.5001 35.663 12.7635 36.2989 13.2323 36.7677C13.7011 37.2366 14.337 37.5 15.0001 37.5ZM50.0001 16.0344L58.9657 25H50.0001V16.0344Z" fill="white" fill-opacity="0.8"/>
</svg>
