<svg width="80" height="80" viewBox="0 0 80 80" fill="none" xmlns="http://www.w3.org/2000/svg">
<path d="M4.56899 67.6111L12.409 46.2689H17.8223L25.6312 67.6111H20.9023L19.2534 63.1933H10.6045L8.95566 67.6111H4.56899ZM11.7245 59.9266H18.1023L14.9912 51.06H14.8668L11.7245 59.9266ZM32.6273 67.6111L25.534 46.2689H30.2318L35.3651 61.7933H35.4895L40.5607 46.2689H44.9162L37.7918 67.6111H32.6273ZM46.7141 67.6111V64.22H49.203V49.66H46.7141V46.2689H56.2341V49.66H53.7452V64.22H56.2341V67.6111H46.7141ZM60.3131 67.6111V46.2689H74.5931L74.0953 49.7533H64.7931V55.3222H73.0997V58.7444H64.7931V67.6111H60.3131Z" fill="white" fill-opacity="0.8"/>
<path d="M15.0001 37.5C15.6631 37.5 16.299 37.2366 16.7679 36.7677C17.2367 36.2989 17.5001 35.663 17.5001 35V12.5H45.0001V27.5C45.0001 28.163 45.2635 28.7989 45.7323 29.2677C46.2012 29.7366 46.8371 30 47.5001 30H62.5001V35C62.5001 35.663 62.7635 36.2989 63.2323 36.7677C63.7012 37.2366 64.3371 37.5 65.0001 37.5C65.6631 37.5 66.299 37.2366 66.7679 36.7677C67.2367 36.2989 67.5001 35.663 67.5001 35V27.5C67.5004 27.1716 67.4359 26.8463 67.3104 26.5429C67.185 26.2394 67.0009 25.9636 66.7688 25.7312L49.2688 8.23124C49.0365 7.99915 48.7607 7.81512 48.4572 7.68965C48.1537 7.56418 47.8285 7.49973 47.5001 7.49999H17.5001C16.174 7.49999 14.9022 8.02677 13.9646 8.96445C13.0269 9.90214 12.5001 11.1739 12.5001 12.5V35C12.5001 35.663 12.7635 36.2989 13.2323 36.7677C13.7012 37.2366 14.3371 37.5 15.0001 37.5ZM50.0001 16.0344L58.9657 25H50.0001V16.0344Z" fill="white" fill-opacity="0.8"/>
</svg>
