<svg width="88" height="80" viewBox="0 0 88 80" fill="none" xmlns="http://www.w3.org/2000/svg">
<path d="M6.02671 67.611L0.0533732 46.2687H4.75115L8.67115 60.6732H8.7956L12.7467 46.2687H17.2889L21.2089 60.6732H21.3334L25.2223 46.2687H29.4845L23.5112 67.611H18.5956L14.8934 54.1087H14.7378L11.0356 67.611H6.02671ZM32.3946 67.611V46.2687H47.2346L46.7368 49.7532H36.9057V55.011H46.0213V58.4332H36.9057V64.1265H46.8613L47.359 67.611H32.3946ZM50.958 67.611V46.2687H61.3491C62.4276 46.2687 63.392 46.4761 64.2424 46.891C65.0928 47.3058 65.7461 47.8865 66.2024 48.6332C66.6794 49.3799 66.918 50.2613 66.918 51.2776C66.918 52.3354 66.7313 53.2169 66.358 53.9221C66.0054 54.6065 65.5491 55.1561 64.9891 55.571C64.4498 55.965 63.8794 56.2554 63.278 56.4421V56.6287C63.6928 56.691 64.1387 56.8361 64.6157 57.0643C65.1135 57.2717 65.5698 57.5621 65.9846 57.9354C66.4202 58.3087 66.7624 58.7754 67.0113 59.3354C67.2809 59.8954 67.4157 60.5902 67.4157 61.4199C67.4157 62.6228 67.1461 63.691 66.6068 64.6243C66.0676 65.5576 65.3313 66.2939 64.398 66.8332C63.4646 67.3517 62.3965 67.611 61.1935 67.611H50.958ZM55.2513 64.2199H60.1668C60.7268 64.2199 61.2143 64.085 61.6291 63.8154C62.0646 63.5458 62.3965 63.1828 62.6246 62.7265C62.8735 62.2702 62.998 61.7517 62.998 61.171C62.998 60.5902 62.8735 60.1028 62.6246 59.7087C62.3757 59.2939 62.0335 58.9724 61.598 58.7443C61.1831 58.5161 60.7165 58.4021 60.198 58.4021H55.2513V64.2199ZM55.2513 55.0732H59.918C60.478 55.0732 60.955 54.9384 61.3491 54.6687C61.7639 54.3991 62.075 54.0465 62.2824 53.611C62.4898 53.1547 62.5935 52.6673 62.5935 52.1487C62.5935 51.2984 62.3757 50.6658 61.9402 50.251C61.5254 49.8154 60.9239 49.5976 60.1357 49.5976H55.2513V55.0732ZM71.3139 67.611V46.2687H81.5805C82.7213 46.2687 83.7583 46.5384 84.6916 47.0776C85.6457 47.6169 86.4027 48.3532 86.9627 49.2865C87.5227 50.1991 87.8027 51.2258 87.8027 52.3665V52.8021C87.8027 53.9428 87.5124 55.0006 86.9316 55.9754C86.3509 56.9502 85.5835 57.728 84.6294 58.3087C83.6753 58.8895 82.6176 59.1799 81.4561 59.1799H75.8561V67.611H71.3139ZM75.8561 55.7576H80.3983C80.9583 55.7576 81.4457 55.6332 81.8605 55.3843C82.2961 55.1147 82.6383 54.7517 82.8872 54.2954C83.1361 53.8391 83.2605 53.3206 83.2605 52.7399C83.2605 51.9102 82.9909 51.205 82.4516 50.6243C81.9124 50.0228 81.1968 49.7221 80.305 49.7221H75.8561V55.7576Z" fill="white" fill-opacity="0.8"/>
<path d="M19 37.4999C19.663 37.4999 20.2989 37.2365 20.7677 36.7676C21.2366 36.2988 21.5 35.6629 21.5 34.9999V12.4999H49V27.4999C49 28.1629 49.2634 28.7988 49.7322 29.2676C50.2011 29.7365 50.8369 29.9999 51.5 29.9999H66.5V34.9999C66.5 35.6629 66.7634 36.2988 67.2322 36.7676C67.7011 37.2365 68.3369 37.4999 69 37.4999C69.663 37.4999 70.2989 37.2365 70.7678 36.7676C71.2366 36.2988 71.5 35.6629 71.5 34.9999V27.4999C71.5002 27.1715 71.4358 26.8462 71.3103 26.5427C71.1849 26.2393 71.0008 25.9635 70.7687 25.7311L53.2687 8.23113C53.0364 7.99904 52.7606 7.81501 52.4571 7.68954C52.1536 7.56407 51.8284 7.49962 51.5 7.49988H21.5C20.1739 7.49988 18.9021 8.02666 17.9644 8.96434C17.0268 9.90203 16.5 11.1738 16.5 12.4999V34.9999C16.5 35.6629 16.7634 36.2988 17.2322 36.7676C17.701 37.2365 18.3369 37.4999 19 37.4999ZM54 16.0342L62.9656 24.9999H54V16.0342Z" fill="white" fill-opacity="0.8"/>
</svg>
