<svg width="80" height="80" viewBox="0 0 80 80" fill="none" xmlns="http://www.w3.org/2000/svg">
<path d="M18.5841 67.9222C17.3397 67.9222 16.23 67.7044 15.2552 67.2689C14.3012 66.8126 13.5545 66.1489 13.0152 65.2778C12.476 64.4066 12.2063 63.3592 12.2063 62.1355V60.58H16.3441V61.8866C16.3441 62.7578 16.5826 63.4111 17.0597 63.8466C17.5367 64.2615 18.1278 64.4689 18.833 64.4689C19.3308 64.4689 19.7663 64.3755 20.1397 64.1889C20.5337 63.9815 20.8345 63.6911 21.0419 63.3178C21.27 62.9444 21.3841 62.4674 21.3841 61.8866V46.2689H25.8641V61.7933C25.8641 63.0585 25.5737 64.1474 24.993 65.06C24.4123 65.9726 23.6241 66.6778 22.6286 67.1755C21.633 67.6733 20.4923 67.9222 19.2063 67.9222H18.5841ZM30.5653 67.6111V46.2689H40.832C41.9727 46.2689 43.0097 46.5385 43.9431 47.0778C44.8971 47.617 45.6542 48.3533 46.2142 49.2866C46.7742 50.1992 47.0542 51.2259 47.0542 52.3666V52.8022C47.0542 53.9429 46.7638 55.0007 46.1831 55.9755C45.6023 56.9503 44.8349 57.7281 43.8808 58.3089C42.9268 58.8896 41.869 59.18 40.7075 59.18H35.1075V67.6111H30.5653ZM35.1075 55.7578H39.6497C40.2097 55.7578 40.6971 55.6333 41.112 55.3844C41.5475 55.1148 41.8897 54.7518 42.1386 54.2955C42.3875 53.8392 42.512 53.3207 42.512 52.74C42.512 51.9103 42.2423 51.2052 41.7031 50.6244C41.1638 50.0229 40.4483 49.7222 39.5564 49.7222H35.1075V55.7578ZM58.0284 67.9222C56.8047 67.9222 55.6743 67.7148 54.6373 67.3C53.6002 66.8852 52.698 66.2733 51.9306 65.4644C51.1632 64.6348 50.5617 63.6081 50.1262 62.3844C49.7113 61.1607 49.5039 59.7192 49.5039 58.06V55.7889C49.5039 54.1503 49.7217 52.7192 50.1573 51.4955C50.6136 50.2511 51.2565 49.2244 52.0862 48.4155C52.9158 47.5859 53.8802 46.9741 54.9795 46.58C56.0995 46.1652 57.3128 45.9578 58.6195 45.9578H59.1795C60.3202 45.9578 61.3884 46.1237 62.3839 46.4555C63.3795 46.7874 64.261 47.2852 65.0284 47.9489C65.7958 48.5918 66.3973 49.4111 66.8328 50.4066C67.2684 51.3815 67.4862 52.5118 67.4862 53.7978H63.2862C63.2862 52.7192 63.0787 51.8585 62.6639 51.2155C62.2699 50.5726 61.7306 50.1163 61.0462 49.8466C60.3824 49.5563 59.6254 49.4111 58.775 49.4111C58.1321 49.4111 57.5306 49.5148 56.9706 49.7222C56.4313 49.9089 55.9543 50.22 55.5395 50.6555C55.1454 51.0703 54.8343 51.6303 54.6062 52.3355C54.3987 53.02 54.295 53.86 54.295 54.8555V59.0244C54.295 60.02 54.3987 60.8703 54.6062 61.5755C54.8343 62.26 55.1454 62.82 55.5395 63.2555C55.9543 63.6703 56.4313 63.9815 56.9706 64.1889C57.5306 64.3755 58.1321 64.4689 58.775 64.4689C59.418 64.4689 60.0091 64.3963 60.5484 64.2511C61.1084 64.1059 61.5958 63.8674 62.0106 63.5355C62.4254 63.2037 62.7469 62.7578 62.975 62.1978C63.2032 61.6378 63.3173 60.9326 63.3173 60.0822V59.18H58.1839V56.1H67.4862V63.4422C67.4862 64.4585 67.5069 65.2985 67.5484 65.9622C67.6106 66.6052 67.6521 67.1548 67.6728 67.6111H65.1839L64.4684 65.0911C63.8254 65.9829 62.9336 66.6778 61.7928 67.1755C60.6521 67.6733 59.4802 67.9222 58.2773 67.9222H58.0284Z" fill="white" fill-opacity="0.8"/>
<path d="M15 37.5C15.6631 37.5 16.299 37.2366 16.7678 36.7677C17.2367 36.2989 17.5 35.663 17.5 35V12.5H45V27.5C45 28.163 45.2634 28.7989 45.7323 29.2678C46.2011 29.7366 46.837 30 47.5 30H62.5V35C62.5 35.663 62.7634 36.2989 63.2323 36.7677C63.7011 37.2366 64.337 37.5 65 37.5C65.6631 37.5 66.299 37.2366 66.7678 36.7677C67.2367 36.2989 67.5 35.663 67.5 35V27.5C67.5003 27.1716 67.4359 26.8464 67.3104 26.5429C67.1849 26.2394 67.0009 25.9636 66.7688 25.7312L49.2688 8.23125C49.0365 7.99916 48.7607 7.81513 48.4572 7.68966C48.1537 7.56419 47.8284 7.49974 47.5 7.5H17.5C16.174 7.5 14.9022 8.02678 13.9645 8.96447C13.0268 9.90215 12.5 11.1739 12.5 12.5V35C12.5 35.663 12.7634 36.2989 13.2323 36.7677C13.7011 37.2366 14.337 37.5 15 37.5ZM50 16.0344L58.9657 25H50V16.0344Z" fill="white" fill-opacity="0.8"/>
</svg>
